<svg xmlns="http://www.w3.org/2000/svg" width="1080" height="1920" viewBox="0 0 1080 1920">
    <defs>
      <linearGradient id="bgGrad" x1="0" y1="0" x2="1" y2="1">
        <stop offset="0%" stop-color="#0B1026"/>
        <stop offset="100%" stop-color="#1E0F5E"/>
      </linearGradient>
      <radialGradient id="glowV" cx="50%" cy="50%" r="60%">
        <stop offset="0%" stop-color="#6A00FF" stop-opacity="0.7"/>
        <stop offset="100%" stop-color="#6A00FF" stop-opacity="0"/>
      </radialGradient>
      <radialGradient id="glowC" cx="50%" cy="50%" r="60%">
        <stop offset="0%" stop-color="#00E5FF" stop-opacity="0.6"/>
        <stop offset="100%" stop-color="#00E5FF" stop-opacity="0"/>
      </radialGradient>
      <radialGradient id="glowP" cx="50%" cy="50%" r="60%">
        <stop offset="0%" stop-color="#FF3D81" stop-opacity="0.6"/>
        <stop offset="100%" stop-color="#FF3D81" stop-opacity="0"/>
      </radialGradient>
      <linearGradient id="coin" x1="0" y1="0" x2="1" y2="1">
        <stop offset="0%" stop-color="#FFD54A"/>
        <stop offset="100%" stop-color="#FF8A00"/>
      </linearGradient>
      <filter id="blur" x="-20%" y="-20%" width="140%" height="140%">
        <feGaussianBlur stdDeviation="60"/>
      </filter>
      <filter id="soft" x="-20%" y="-20%" width="140%" height="140%">
        <feGaussianBlur stdDeviation="18"/>
      </filter>
    </defs>
    <!-- Background gradient -->
    <rect x="0" y="0" width="1080" height="1920" fill="url(#bgGrad)"/>
    <!-- Abstract glowing swirls -->
    <ellipse cx="216.0" cy="384.0" rx="540.0" ry="345.59999999999997" fill="url(#glowV)" filter="url(#blur)" opacity="0.9"/>
    <ellipse cx="972.0" cy="576.0" rx="648.0" ry="422.4" fill="url(#glowC)" filter="url(#blur)" opacity="0.85"/>
    <ellipse cx="540.0" cy="1632.0" rx="756.0" ry="537.6" fill="url(#glowP)" filter="url(#blur)" opacity="0.9"/>
    <!-- Concentric arcs -->
    <g opacity="0.35">
      <path d="M-216.0,1248.0 Q 432.0,384.0 1296.0,1056.0" fill="none" stroke="#6A00FF" stroke-width="22" filter="url(#soft)"/>
      <path d="M-108.0,1382.3999999999999 Q 540.0,422.4 1188.0,1152.0" fill="none" stroke="#00E5FF" stroke-width="14" filter="url(#soft)"/>
      <path d="M-54.0,1497.6000000000001 Q 594.0,480.0 1134.0,1248.0" fill="none" stroke="#FF3D81" stroke-width="8" filter="url(#soft)"/>
    </g>
    <!-- Coins -->
    
        <g transform="translate(368.7654474178338,423.70433114803495) rotate(-21.378185666622862)">
          <ellipse cx="0" cy="0" rx="35.86392250982026" ry="11.20747578431883" fill="url(#coin)"/>
          <ellipse cx="0" cy="-5.603737892159415" rx="31.380932196092726" ry="9.414279658827818" fill="none" stroke="#0B1026" stroke-opacity="0.35" stroke-width="3"/>
          <circle cx="0" cy="0" r="7.845233049023181" fill="#FFD54A" opacity="0.85"/>
        </g>
        
        <g transform="translate(574.8773081861019,753.6981763777314) rotate(0.3717866594710131)">
          <ellipse cx="0" cy="0" rx="20.684772474232496" ry="6.4639913981976544" fill="url(#coin)"/>
          <ellipse cx="0" cy="-3.2319956990988272" rx="18.09917591495343" ry="5.42975277448603" fill="none" stroke="#0B1026" stroke-opacity="0.35" stroke-width="3"/>
          <circle cx="0" cy="0" r="4.524793978738358" fill="#FFD54A" opacity="0.85"/>
        </g>
        
        <g transform="translate(90.4457800056093,858.0797701054247) rotate(-20.464349332806748)">
          <ellipse cx="0" cy="0" rx="20.988298843510247" ry="6.5588433885969515" fill="url(#coin)"/>
          <ellipse cx="0" cy="-3.2794216942984757" rx="18.364761488071462" ry="5.509428446421439" fill="none" stroke="#0B1026" stroke-opacity="0.35" stroke-width="3"/>
          <circle cx="0" cy="0" r="4.5911903720178655" fill="#FFD54A" opacity="0.85"/>
        </g>
        
        <g transform="translate(466.6326518465236,1462.0448634962504) rotate(-13.838051769649272)">
          <ellipse cx="0" cy="0" rx="22.369330205430927" ry="6.990415689197165" fill="url(#coin)"/>
          <ellipse cx="0" cy="-3.4952078445985824" rx="19.57316392975206" ry="5.871949178925618" fill="none" stroke="#0B1026" stroke-opacity="0.35" stroke-width="3"/>
          <circle cx="0" cy="0" r="4.893290982438015" fill="#FFD54A" opacity="0.85"/>
        </g>
        
        <g transform="translate(663.8650921782328,1647.6809356139606) rotate(-5.165976267460991)">
          <ellipse cx="0" cy="0" rx="33.97383548460797" ry="10.61682358893999" fill="url(#coin)"/>
          <ellipse cx="0" cy="-5.308411794469995" rx="29.72710604903197" ry="8.918131814709591" fill="none" stroke="#0B1026" stroke-opacity="0.35" stroke-width="3"/>
          <circle cx="0" cy="0" r="7.431776512257993" fill="#FFD54A" opacity="0.85"/>
        </g>
        
        <g transform="translate(1002.9199626363182,263.55099742887364) rotate(-10.519535683416187)">
          <ellipse cx="0" cy="0" rx="41.1767925516462" ry="12.867747672389436" fill="url(#coin)"/>
          <ellipse cx="0" cy="-6.433873836194718" rx="36.02969348269042" ry="10.808908044807126" fill="none" stroke="#0B1026" stroke-opacity="0.35" stroke-width="3"/>
          <circle cx="0" cy="0" r="9.007423370672605" fill="#FFD54A" opacity="0.85"/>
        </g>
        
        <g transform="translate(194.21594102342928,372.9288776883738) rotate(15.806317956001571)">
          <ellipse cx="0" cy="0" rx="27.09713469700952" ry="8.467854592815474" fill="url(#coin)"/>
          <ellipse cx="0" cy="-4.233927296407737" rx="23.709992859883325" ry="7.112997857964998" fill="none" stroke="#0B1026" stroke-opacity="0.35" stroke-width="3"/>
          <circle cx="0" cy="0" r="5.927498214970831" fill="#FFD54A" opacity="0.85"/>
        </g>
        
        <g transform="translate(229.6660412860672,1085.3378513855482) rotate(-6.380122863713439)">
          <ellipse cx="0" cy="0" rx="35.556184804510316" ry="11.111307751409473" fill="url(#coin)"/>
          <ellipse cx="0" cy="-5.555653875704737" rx="31.111661703946524" ry="9.333498511183958" fill="none" stroke="#0B1026" stroke-opacity="0.35" stroke-width="3"/>
          <circle cx="0" cy="0" r="7.777915425986631" fill="#FFD54A" opacity="0.85"/>
        </g>
        
        <g transform="translate(586.4076206696902,288.44386555902435) rotate(-14.702064359033674)">
          <ellipse cx="0" cy="0" rx="20.725789951135557" ry="6.476809359729861" fill="url(#coin)"/>
          <ellipse cx="0" cy="-3.2384046798649306" rx="18.13506620724361" ry="5.440519862173083" fill="none" stroke="#0B1026" stroke-opacity="0.35" stroke-width="3"/>
          <circle cx="0" cy="0" r="4.533766551810903" fill="#FFD54A" opacity="0.85"/>
        </g>
        
        <g transform="translate(715.3487739326958,848.7817815082028) rotate(4.278093175381937)">
          <ellipse cx="0" cy="0" rx="27.242167561645864" ry="8.513177363014332" fill="url(#coin)"/>
          <ellipse cx="0" cy="-4.256588681507166" rx="23.83689661644013" ry="7.151068984932039" fill="none" stroke="#0B1026" stroke-opacity="0.35" stroke-width="3"/>
          <circle cx="0" cy="0" r="5.959224154110032" fill="#FFD54A" opacity="0.85"/>
        </g>
        
        <g transform="translate(494.49521383239363,652.4421071826162) rotate(9.949721686478561)">
          <ellipse cx="0" cy="0" rx="39.536114726975775" ry="12.35503585217993" fill="url(#coin)"/>
          <ellipse cx="0" cy="-6.177517926089965" rx="34.5941003861038" ry="10.37823011583114" fill="none" stroke="#0B1026" stroke-opacity="0.35" stroke-width="3"/>
          <circle cx="0" cy="0" r="8.64852509652595" fill="#FFD54A" opacity="0.85"/>
        </g>
        
        <g transform="translate(291.26180842193264,1074.3148189573187) rotate(18.756874778671445)">
          <ellipse cx="0" cy="0" rx="32.64503049757316" ry="10.201572030491612" fill="url(#coin)"/>
          <ellipse cx="0" cy="-5.100786015245806" rx="28.56440168537651" ry="8.569320505612954" fill="none" stroke="#0B1026" stroke-opacity="0.35" stroke-width="3"/>
          <circle cx="0" cy="0" r="7.141100421344127" fill="#FFD54A" opacity="0.85"/>
        </g>
        
        <g transform="translate(763.0208213349196,634.2724068713264) rotate(-19.096711087251894)">
          <ellipse cx="0" cy="0" rx="44.29247609581011" ry="13.841398779940658" fill="url(#coin)"/>
          <ellipse cx="0" cy="-6.920699389970329" rx="38.75591658383384" ry="11.626774975150152" fill="none" stroke="#0B1026" stroke-opacity="0.35" stroke-width="3"/>
          <circle cx="0" cy="0" r="9.68897914595846" fill="#FFD54A" opacity="0.85"/>
        </g>
        
        <g transform="translate(460.41538277524086,1354.968467812223) rotate(-0.5518449762097184)">
          <ellipse cx="0" cy="0" rx="23.090804087308925" ry="7.215876277284038" fill="url(#coin)"/>
          <ellipse cx="0" cy="-3.607938138642019" rx="20.204453576395306" ry="6.061336072918592" fill="none" stroke="#0B1026" stroke-opacity="0.35" stroke-width="3"/>
          <circle cx="0" cy="0" r="5.051113394098826" fill="#FFD54A" opacity="0.85"/>
        </g>
        <circle cx="42.3" cy="1283.0" r="2.10" fill="#FFFFFF" opacity="0.60"/>
<circle cx="945.5" cy="602.4" r="1.98" fill="#FFFFFF" opacity="0.62"/>
<circle cx="626.3" cy="875.9" r="2.23" fill="#FFFFFF" opacity="0.86"/>
<circle cx="512.0" cy="1275.2" r="0.90" fill="#FFFFFF" opacity="0.69"/>
<circle cx="698.9" cy="1906.7" r="2.20" fill="#FFFFFF" opacity="0.40"/>
<circle cx="416.7" cy="1283.8" r="0.84" fill="#FFFFFF" opacity="0.52"/>
<circle cx="181.5" cy="224.8" r="0.90" fill="#FFFFFF" opacity="0.74"/>
<circle cx="139.7" cy="475.4" r="1.46" fill="#FFFFFF" opacity="0.81"/>
<circle cx="87.0" cy="862.4" r="1.73" fill="#FFFFFF" opacity="0.82"/>
<circle cx="884.8" cy="1658.9" r="1.27" fill="#FFFFFF" opacity="0.49"/>
<circle cx="387.5" cy="1697.7" r="2.43" fill="#FFFFFF" opacity="0.31"/>
<circle cx="190.3" cy="445.4" r="1.20" fill="#FFFFFF" opacity="0.54"/>
<circle cx="636.3" cy="504.5" r="0.81" fill="#FFFFFF" opacity="0.49"/>
<circle cx="398.8" cy="1087.4" r="2.42" fill="#FFFFFF" opacity="0.68"/>
<circle cx="556.7" cy="1185.8" r="1.95" fill="#FFFFFF" opacity="0.24"/>
<circle cx="971.5" cy="1497.5" r="2.29" fill="#FFFFFF" opacity="0.76"/>
<circle cx="423.8" cy="766.0" r="0.98" fill="#FFFFFF" opacity="0.64"/>
<circle cx="67.2" cy="129.3" r="1.15" fill="#FFFFFF" opacity="0.31"/>
<circle cx="367.3" cy="100.9" r="0.80" fill="#FFFFFF" opacity="0.31"/>
<circle cx="109.6" cy="698.1" r="0.84" fill="#FFFFFF" opacity="0.81"/>
<circle cx="663.2" cy="285.2" r="1.23" fill="#FFFFFF" opacity="0.44"/>
<circle cx="393.3" cy="235.9" r="2.24" fill="#FFFFFF" opacity="0.90"/>
<circle cx="503.3" cy="929.0" r="0.95" fill="#FFFFFF" opacity="0.27"/>
<circle cx="370.0" cy="508.3" r="2.21" fill="#FFFFFF" opacity="0.31"/>
<circle cx="24.9" cy="1825.9" r="1.70" fill="#FFFFFF" opacity="0.30"/>
<circle cx="586.6" cy="51.9" r="1.70" fill="#FFFFFF" opacity="0.88"/>
<circle cx="932.4" cy="1336.7" r="1.24" fill="#FFFFFF" opacity="0.46"/>
<circle cx="180.4" cy="1482.1" r="1.71" fill="#FFFFFF" opacity="0.75"/>
<circle cx="356.0" cy="428.2" r="2.18" fill="#FFFFFF" opacity="0.89"/>
<circle cx="920.8" cy="1547.7" r="2.19" fill="#FFFFFF" opacity="0.72"/>
<circle cx="244.9" cy="993.9" r="1.40" fill="#FFFFFF" opacity="0.22"/>
<circle cx="30.2" cy="536.5" r="1.24" fill="#FFFFFF" opacity="0.68"/>
<circle cx="1033.0" cy="858.7" r="2.39" fill="#FFFFFF" opacity="0.89"/>
<circle cx="1031.4" cy="700.1" r="1.17" fill="#FFFFFF" opacity="0.36"/>
<circle cx="212.4" cy="392.4" r="1.86" fill="#FFFFFF" opacity="0.83"/>
<circle cx="907.7" cy="920.6" r="1.91" fill="#FFFFFF" opacity="0.76"/>
<circle cx="91.6" cy="1268.3" r="2.35" fill="#FFFFFF" opacity="0.75"/>
<circle cx="810.2" cy="917.8" r="1.10" fill="#FFFFFF" opacity="0.75"/>
<circle cx="359.1" cy="1537.6" r="2.45" fill="#FFFFFF" opacity="0.48"/>
<circle cx="433.5" cy="1817.9" r="2.03" fill="#FFFFFF" opacity="0.32"/>
<circle cx="137.2" cy="290.2" r="2.34" fill="#FFFFFF" opacity="0.76"/>
<circle cx="157.9" cy="1586.9" r="2.47" fill="#FFFFFF" opacity="0.66"/>
<circle cx="378.4" cy="1053.4" r="1.02" fill="#FFFFFF" opacity="0.21"/>
<circle cx="1048.6" cy="1247.4" r="1.70" fill="#FFFFFF" opacity="0.85"/>
<circle cx="468.5" cy="1673.7" r="2.20" fill="#FFFFFF" opacity="0.35"/>
<circle cx="272.0" cy="562.5" r="1.21" fill="#FFFFFF" opacity="0.61"/>
<circle cx="280.1" cy="804.5" r="1.02" fill="#FFFFFF" opacity="0.84"/>
<circle cx="382.1" cy="879.7" r="1.79" fill="#FFFFFF" opacity="0.83"/>
<circle cx="454.3" cy="1762.0" r="1.65" fill="#FFFFFF" opacity="0.57"/>
<circle cx="565.4" cy="35.9" r="1.55" fill="#FFFFFF" opacity="0.33"/>
<circle cx="4.2" cy="1534.4" r="1.09" fill="#FFFFFF" opacity="0.53"/>
<circle cx="783.2" cy="1068.4" r="1.35" fill="#FFFFFF" opacity="0.56"/>
<circle cx="599.9" cy="1505.8" r="0.98" fill="#FFFFFF" opacity="0.59"/>
<circle cx="268.4" cy="531.7" r="2.11" fill="#FFFFFF" opacity="0.56"/>
<circle cx="606.7" cy="1459.2" r="2.35" fill="#FFFFFF" opacity="0.51"/>
<circle cx="661.5" cy="970.7" r="1.67" fill="#FFFFFF" opacity="0.68"/>
<circle cx="488.5" cy="1023.9" r="1.61" fill="#FFFFFF" opacity="0.86"/>
<circle cx="755.2" cy="1682.9" r="2.40" fill="#FFFFFF" opacity="0.38"/>
<circle cx="604.3" cy="1811.1" r="2.23" fill="#FFFFFF" opacity="0.30"/>
<circle cx="131.4" cy="848.9" r="0.92" fill="#FFFFFF" opacity="0.37"/>
<circle cx="79.0" cy="1285.4" r="2.13" fill="#FFFFFF" opacity="0.83"/>
<circle cx="166.8" cy="1375.0" r="1.92" fill="#FFFFFF" opacity="0.30"/>
<circle cx="953.5" cy="1857.7" r="1.17" fill="#FFFFFF" opacity="0.87"/>
<circle cx="430.1" cy="935.5" r="2.48" fill="#FFFFFF" opacity="0.78"/>
<circle cx="174.4" cy="828.5" r="1.68" fill="#FFFFFF" opacity="0.44"/>
<circle cx="211.4" cy="611.6" r="2.03" fill="#FFFFFF" opacity="0.21"/>
<circle cx="598.4" cy="845.7" r="0.83" fill="#FFFFFF" opacity="0.43"/>
<circle cx="673.8" cy="983.5" r="0.91" fill="#FFFFFF" opacity="0.89"/>
<circle cx="851.4" cy="1865.7" r="0.98" fill="#FFFFFF" opacity="0.39"/>
<circle cx="42.8" cy="1495.7" r="1.26" fill="#FFFFFF" opacity="0.29"/>
<circle cx="456.0" cy="1749.9" r="2.19" fill="#FFFFFF" opacity="0.38"/>
<circle cx="161.3" cy="1764.8" r="1.77" fill="#FFFFFF" opacity="0.69"/>
<circle cx="96.6" cy="110.5" r="1.97" fill="#FFFFFF" opacity="0.50"/>
<circle cx="78.2" cy="1801.6" r="1.88" fill="#FFFFFF" opacity="0.76"/>
<circle cx="90.4" cy="1644.0" r="0.91" fill="#FFFFFF" opacity="0.80"/>
<circle cx="490.1" cy="651.2" r="1.74" fill="#FFFFFF" opacity="0.85"/>
<circle cx="289.3" cy="248.1" r="1.70" fill="#FFFFFF" opacity="0.37"/>
<circle cx="118.2" cy="310.0" r="0.89" fill="#FFFFFF" opacity="0.34"/>
<circle cx="337.0" cy="585.6" r="2.09" fill="#FFFFFF" opacity="0.40"/>
<circle cx="540.1" cy="341.6" r="1.39" fill="#FFFFFF" opacity="0.21"/>
</svg>